<svg width="32" height="32" viewBox="0 0 32 32" fill="none" xmlns="http://www.w3.org/2000/svg">
<path d="M15.792 31.5732C24.3524 31.5732 31.292 24.6337 31.292 16.0732C31.292 7.51283 24.3524 0.573242 15.792 0.573242C7.23158 0.573242 0.291992 7.51283 0.291992 16.0732C0.291992 24.6337 7.23158 31.5732 15.792 31.5732Z" fill="#039BE5"/>
<path d="M7.85318 15.7374L23.7868 9.97531C24.5263 9.72472 25.1722 10.1445 24.9325 11.1933L24.9339 11.1921L22.2209 23.18C22.0199 24.0299 21.4814 24.2366 20.7281 23.8362L16.5967 20.9803L14.6039 22.7809C14.3836 22.9876 14.1977 23.1619 13.7708 23.1619L14.0641 19.2185L21.721 12.7304C22.0543 12.4553 21.6467 12.3003 21.2074 12.5741L11.745 18.1619L7.66589 16.9684C6.78038 16.7049 6.7611 16.1378 7.85318 15.7374Z" fill="white"/>
</svg>
